<?xml version="1.0" standalone="no"?>
<!DOCTYPE svg PUBLIC "-//W3C//DTD SVG 20010904//EN"
 "http://www.w3.org/TR/2001/REC-SVG-20010904/DTD/svg10.dtd">
<svg version="1.0" xmlns="http://www.w3.org/2000/svg"
 width="626.000000pt" height="369.000000pt" viewBox="0 0 626.000000 369.000000"
 preserveAspectRatio="xMidYMid meet">

<g transform="translate(0.000000,369.000000) scale(0.100000,-0.100000)"
fill="#000000" stroke="none">
<path d="M0 1845 l0 -1845 3130 0 3130 0 0 1845 0 1845 -3130 0 -3130 0 0
-1845z m3235 1710 c123 -46 249 -153 333 -283 22 -34 75 -95 119 -136 141
-133 242 -316 278 -501 22 -114 16 -294 -14 -408 -42 -158 -138 -317 -270
-447 -48 -47 -104 -110 -125 -142 -44 -67 -141 -167 -203 -209 -60 -42 -144
-74 -228 -89 -197 -35 -436 95 -573 310 -19 30 -74 93 -122 140 -98 95 -172
201 -219 314 -50 120 -63 182 -68 321 -4 108 -2 147 16 229 41 189 118 327
265 471 50 50 97 102 104 116 24 46 136 173 196 221 82 65 167 105 266 122 55
10 183 -5 245 -29z m11 -2371 c20 -11 43 -31 52 -46 15 -25 15 -28 -9 -47 -35
-30 -58 -35 -77 -18 -43 39 -117 24 -117 -23 0 -21 14 -32 90 -73 94 -49 115
-69 141 -127 12 -29 13 -43 4 -80 -22 -89 -73 -120 -195 -120 -79 0 -90 3
-125 27 -62 45 -66 59 -29 94 34 32 60 37 79 14 7 -8 30 -20 51 -25 52 -14
109 8 109 42 0 24 -30 47 -152 118 -72 42 -103 92 -93 151 19 110 159 169 271
113z m1945 12 c69 -21 102 -41 139 -82 96 -110 95 -272 -5 -382 -54 -60 -109
-82 -205 -82 -62 0 -90 5 -121 20 -90 46 -159 157 -159 253 1 104 78 221 170
256 19 7 44 17 55 21 30 13 75 11 126 -4z m491 2 c44 -13 88 -52 88 -79 0 -10
-14 -27 -30 -39 l-30 -22 -36 22 c-28 18 -42 21 -66 14 -39 -12 -57 -37 -42
-61 6 -10 45 -36 87 -58 41 -22 84 -47 95 -55 52 -41 68 -137 31 -197 -32 -51
-84 -73 -175 -73 -85 0 -140 22 -171 69 -16 24 -15 26 18 53 39 33 44 34 75 9
76 -59 206 -12 145 53 -11 12 -59 43 -105 69 -46 25 -91 58 -101 73 -53 81
-12 181 90 218 50 18 77 19 127 4z m-4074 -7 c18 -1 16 -85 -3 -101 -8 -6 -22
-9 -32 -6 -10 3 -31 2 -48 -2 l-30 -8 -5 -210 -5 -209 -47 -3 c-68 -4 -70 3
-67 231 l2 192 -39 3 c-81 5 -84 7 -84 61 0 27 5 51 10 53 8 2 305 2 348 -1z
m150 1 c9 -7 12 -68 10 -273 l-3 -264 -47 -3 c-37 -2 -48 1 -55 15 -4 10 -7
131 -5 270 3 250 3 252 25 256 38 7 62 7 75 -1z m-630 -212 c2 -127 7 -207 13
-211 6 -3 48 -5 93 -3 45 1 88 -1 95 -5 8 -5 11 -26 9 -57 l-3 -49 -149 -3
c-106 -2 -153 1 -163 10 -12 10 -14 52 -12 262 1 138 4 255 7 259 2 4 27 7 55
5 l52 -3 3 -205z m1571 60 c25 -52 73 -156 108 -229 35 -74 61 -141 59 -148
-3 -8 -23 -13 -51 -13 -42 0 -48 3 -66 35 -23 38 -21 37 -163 37 -61 -1 -71
-5 -90 -44 -9 -19 -21 -24 -64 -26 -46 -3 -52 -1 -52 17 0 11 23 68 51 128 28
59 76 159 105 221 30 63 54 116 54 118 0 3 7 16 16 30 l17 25 16 -28 c9 -15
36 -71 60 -123z m1029 103 l-3 -48 -57 -5 c-31 -3 -59 -8 -62 -11 -4 -3 -7
-93 -7 -199 0 -107 -4 -202 -10 -212 -11 -21 -83 -26 -96 -5 -4 6 -10 104 -13
217 l-5 205 -60 5 c-60 5 -60 5 -63 38 -6 63 -11 62 193 62 l186 0 -3 -47z
m787 21 c54 -25 99 -72 123 -127 7 -15 12 -68 12 -117 0 -102 -20 -151 -82
-205 -52 -44 -96 -56 -224 -62 -102 -5 -113 -4 -122 13 -7 15 -10 371 -3 502
1 22 4 22 122 22 108 0 126 -3 174 -26z m289 -229 c2 -137 -1 -258 -6 -267
-11 -22 -80 -25 -96 -5 -11 13 -17 501 -6 519 3 5 28 8 56 6 l49 -3 3 -250z
m-4175 173 l41 -56 0 -112 0 -112 34 -34 c50 -50 109 -42 146 18 18 30 20 43
14 133 l-6 100 47 65 c26 36 50 67 52 70 17 19 23 -47 21 -205 -3 -170 -4
-182 -28 -223 -13 -24 -44 -56 -69 -72 -38 -25 -54 -30 -108 -30 -39 0 -76 6
-96 16 -46 24 -95 80 -106 123 -8 28 -16 297 -12 379 1 22 28 0 70 -60z m1227
32 c16 -22 52 -70 79 -108 28 -37 67 -91 87 -119 22 -30 43 -50 50 -47 7 2 26
24 42 47 82 116 198 267 207 267 6 0 8 -100 7 -262 l-3 -263 -50 0 -50 0 -5
92 c-3 50 -8 94 -11 97 -3 4 -32 -32 -64 -78 -32 -47 -64 -87 -72 -90 -13 -5
-91 91 -115 141 -6 12 -17 24 -24 27 -11 4 -14 -12 -14 -77 0 -102 -10 -120
-65 -115 l-40 3 -5 205 c-5 215 -2 320 9 320 4 0 20 -18 37 -40z m1964 -23
l44 -62 1 -110 c0 -90 3 -116 18 -138 35 -54 118 -60 157 -10 17 22 20 40 20
141 l0 115 42 56 c50 67 61 76 69 53 14 -38 10 -306 -6 -359 -29 -99 -101
-153 -200 -153 -61 0 -104 17 -148 59 -51 47 -57 76 -57 282 0 104 3 189 8
189 4 0 27 -29 52 -63z"/>
<path d="M2980 3443 c-48 -10 -154 -63 -144 -72 5 -6 52 -3 115 6 95 13 118
14 215 0 60 -8 113 -11 118 -7 4 5 -21 23 -58 40 -53 26 -81 33 -143 35 -43 2
-89 1 -103 -2z"/>
<path d="M2900 3230 c-103 -25 -114 -29 -189 -66 -103 -50 -114 -65 -165 -219
-60 -181 -76 -283 -76 -484 0 -219 33 -404 101 -561 34 -79 46 -92 119 -131
128 -67 221 -90 370 -90 131 1 224 20 332 70 95 45 122 71 157 155 62 149 92
296 98 486 6 179 -6 314 -41 452 -26 99 -80 243 -100 265 -17 19 -156 88 -206
102 -152 45 -275 51 -400 21z m-151 -419 l101 -134 0 -220 c0 -257 5 -283 70
-348 47 -47 78 -59 149 -59 80 1 170 72 192 152 5 21 8 131 7 256 l-3 219 106
138 c58 77 111 141 117 143 19 6 17 -757 -2 -818 -39 -130 -116 -223 -232
-280 -68 -34 -71 -35 -194 -35 -122 0 -127 1 -193 34 -118 57 -209 171 -237
295 -11 49 -21 676 -12 758 3 35 8 46 18 40 7 -4 58 -68 113 -141z"/>
<path d="M2328 2750 c-69 -184 -67 -430 4 -585 l18 -40 -5 60 c-15 187 -17
387 -5 475 16 119 11 153 -12 90z"/>
<path d="M3766 2782 c-3 -6 -1 -34 6 -64 17 -73 16 -435 -1 -512 -9 -42 -10
-61 -2 -69 8 -8 11 -5 11 9 0 11 4 24 9 30 15 16 42 122 51 203 13 114 -11
279 -55 384 -7 16 -15 25 -19 19z"/>
<path d="M2840 1543 c44 -35 154 -73 212 -73 82 0 198 39 229 76 13 16 10 17
-51 8 -81 -11 -264 -11 -350 0 l-65 9 25 -20z"/>
<path d="M5037 1067 c-136 -82 -98 -279 60 -312 63 -13 145 32 179 97 20 38
17 105 -6 153 -39 81 -152 111 -233 62z"/>
<path d="M2608 918 c-18 -29 -38 -76 -38 -88 0 -6 23 -10 50 -10 38 0 50 4 50
15 0 14 -39 105 -45 105 -1 0 -9 -10 -17 -22z"/>
<path d="M4343 1082 c-19 -12 -21 -301 -2 -313 19 -13 97 -1 134 20 92 52 88
225 -6 272 -40 20 -109 31 -126 21z"/>
</g>
</svg>
